<svg xmlns="http://www.w3.org/2000/svg" version="1.1" xmlns:xlink="http://www.w3.org/1999/xlink" xmlns:svgjs="http://svgjs.dev/svgjs" width="1500" height="1500" viewBox="0 0 1500 1500"><rect width="1500" height="1500" fill="#081e35"></rect><g transform="matrix(0.6666666666666666,0,0,0.6666666666666666,249.39393939393938,638.0346592085746)"><svg viewBox="0 0 396 88" data-background-color="#081e35" preserveAspectRatio="xMidYMid meet" height="333" width="1500" xmlns="http://www.w3.org/2000/svg" xmlns:xlink="http://www.w3.org/1999/xlink"><g id="tight-bounds" transform="matrix(1,0,0,1,0.2400000000000091,0.3826576110155031)"><svg viewBox="0 0 395.52 87.23468477796898" height="87.23468477796898" width="395.52"><g><svg viewBox="0 0 519.0580220466553 114.48185410274083" height="87.23468477796898" width="395.52"><g><rect width="7.2295660848634915" height="114.48185410274083" x="97.38289029460992" y="0" fill="#ffffff" opacity="1" stroke-width="0" stroke="transparent" fill-opacity="1" class="rect-yte-0" data-fill-palette-color="primary" rx="1%" id="yte-0" data-palette-color="#ffffff"></rect></g><g transform="matrix(1,0,0,1,123.53802204665533,0.2847807315988504)"><svg viewBox="0 0 395.52 113.91229263954313" height="113.91229263954313" width="395.52"><g id="textblocktransform"><svg viewBox="0 0 395.52 113.91229263954313" height="113.91229263954313" width="395.52" id="textblock"><g><svg viewBox="0 0 395.52 80.16725828623797" height="80.16725828623797" width="395.52"><g transform="matrix(1,0,0,1,0,0)"><svg width="395.52" viewBox="2.86 -32.4 159.82999999999998 32.4" height="80.16725828623797" data-palette-color="#ffffff"><path d="M13.65 0L2.86 0 2.86-32.4 13.65-32.4 13.65 0ZM23.46-25.93L15.36-25.93 15.36-32.4 27.69-32.4 34.18-25.93 34.18-16.21 29.2-11.23 28.86-11.91 18.73-10.57 19.12-9.72 15.36-9.72 15.36-15.99 23.46-15.99 23.46-25.93ZM29.2-11.23L35.28 0 23.75 0 19.12-9.72 27.69-9.72 29.2-11.23ZM38.64 0L38.64-6.91 41.89-6.91 41.89-25.51 38.64-25.51 38.64-32.4 55.93-32.4 55.93-25.51 52.68-25.51 52.68-6.91 55.93-6.91 55.93 0 38.64 0ZM71.94 0L61.15 0 61.15-32.4 71.94-32.4 71.94 0ZM92.4-32.4L73.6-4.59 73.6-20.34 81.17-32.37 92.4-32.4ZM83.98-17.14L92.91 0 81.25 0 77.58-7.54 83.98-17.14ZM115.72-13.31L105.39-13.31 105.39 0 94.6 0 94.6-32.4 105.39-32.4 105.39-19.56 115.72-19.56 115.72-13.31ZM113.81-26.12L107.1-26.12 107.1-32.4 123.97-32.4 123.97-23.02 113.81-23.02 113.81-26.12ZM123.97 0L107.1 0 107.1-6.47 113.18-6.47 113.18-9.72 123.97-9.72 123.97 0ZM151.77 0L150.41-3.54 139.81-3.54 142.06-9.96 147.91-9.96 139.25-32.4 149.77-32.4 162.69 0 151.77 0ZM142.86-18.07L136.93 0 126.5 0 138.08-30.93 142.86-18.07Z" opacity="1" transform="matrix(1,0,0,1,0,0)" fill="#ffffff" class="wordmark-text-0" data-fill-palette-color="primary" id="text-0"></path></svg></g></svg></g><g transform="matrix(1,0,0,1,0,99.09282395341988)"><svg viewBox="0 0 232.209792 14.819468686123239" height="14.819468686123239" width="232.209792"><g transform="matrix(1,0,0,1,0,0)"><svg width="232.209792" viewBox="0.71 -41.5 743.61 47.46" height="14.819468686123239" data-palette-color="#d97474"><path d="M0.71-28.25L8.25-28.25 8.25-30.54Q8.25-35.13 10.11-37.77L10.11-37.77Q12.77-41.5 17.85-41.5L17.85-41.5Q21.46-41.5 24.68-39.55L24.68-39.55 22.9-36.35Q20.63-37.74 18.21-37.74L18.21-37.74Q14.72-37.74 13.35-34.55L13.35-34.55Q12.74-33.08 12.74-30.59L12.74-30.59 12.74-28.25 22.44-28.25 22.44-24.76 12.74-24.76 12.74 1.25 8.25 1.25 8.25-24.76 0.71-24.76 0.71-28.25ZM55.69-14.31L55.69-13.01 32.96-13.01Q33.05-8.37 35.13-5.62L35.13-5.62Q37.94-1.88 43.28-1.88L43.28-1.88Q48.92-1.88 52.76-6.76L52.76-6.76 55.59-3.76Q50.73 2.08 43.06 2.08L43.06 2.08Q35.42 2.08 31.32-3.13L31.32-3.13Q28.15-7.15 28.15-13.23L28.15-13.23Q28.15-18.46 30.44-22.34L30.44-22.34Q32.69-26.1 36.55-27.83L36.55-27.83Q39.23-29.05 42.26-29.05L42.26-29.05Q49.29-29.05 53.07-23.44L53.07-23.44Q55.69-19.56 55.69-14.31L55.69-14.31ZM33.15-16.5L50.9-16.5Q50.61-20.12 48.61-22.41L48.61-22.41Q46.12-25.29 42.16-25.29L42.16-25.29Q39.28-25.29 36.91-23.46L36.91-23.46Q33.79-21.07 33.15-16.5L33.15-16.5ZM90.18-14.31L90.18-13.01 67.45-13.01Q67.55-8.37 69.62-5.62L69.62-5.62Q72.43-1.88 77.78-1.88L77.78-1.88Q83.42-1.88 87.25-6.76L87.25-6.76 90.08-3.76Q85.22 2.08 77.56 2.08L77.56 2.08Q69.92 2.08 65.82-3.13L65.82-3.13Q62.64-7.15 62.64-13.23L62.64-13.23Q62.64-18.46 64.94-22.34L64.94-22.34Q67.18-26.1 71.04-27.83L71.04-27.83Q73.73-29.05 76.75-29.05L76.75-29.05Q83.78-29.05 87.57-23.44L87.57-23.44Q90.18-19.56 90.18-14.31L90.18-14.31ZM67.65-16.5L85.4-16.5Q85.1-20.12 83.1-22.41L83.1-22.41Q80.61-25.29 76.66-25.29L76.66-25.29Q73.77-25.29 71.41-23.46L71.41-23.46Q68.28-21.07 67.65-16.5L67.65-16.5ZM99.48-2.91L99.48-41.5 104.07-41.5 104.07-3.44Q104.07-2.49 104.97-2.49L104.97-2.49 108.88-2.49 108.37 1.25 103.73 1.25Q99.48 1.25 99.48-2.91L99.48-2.91ZM112.98-2.29L115.42-5.76Q119.96-2 125.65-2L125.65-2Q132.22-2 132.22-6.35L132.22-6.35Q132.22-8.35 129.97-9.77L129.97-9.77Q128.53-10.67 125.48-11.74L125.48-11.74 122.94-12.65Q118.72-14.14 116.81-15.7L116.81-15.7Q114.47-17.63 114.47-20.9L114.47-20.9Q114.47-24.8 117.81-27.1L117.81-27.1Q120.57-29 124.72-29L124.72-29Q130.78-29 135.88-25.49L135.88-25.49 133.53-22Q129.46-25.1 124.97-25.1L124.97-25.1Q122.96-25.1 121.57-24.37L121.57-24.37Q119.35-23.24 119.35-21.02L119.35-21.02Q119.35-19.26 120.91-18.26L120.91-18.26Q121.89-17.63 125.33-16.36L125.33-16.36 128.43-15.21Q132.66-13.62 134.71-11.84L134.71-11.84Q137.22-9.67 137.22-6.45L137.22-6.45Q137.22-2.25 133.56 0.2L133.56 0.2Q130.75 2.05 125.31 2.05L125.31 2.05Q118.35 2.05 112.98-2.29L112.98-2.29ZM182.16-28.25L185.7-28.25 185.7-6.69Q185.7-0.46 182.55 2.66L182.55 2.66Q179.23 5.96 172.91 5.96L172.91 5.96Q165.71 5.96 160.75 2.15L160.75 2.15 162.97-1.15Q166.9 2.15 172.93 2.15L172.93 2.15Q178.04 2.15 180.09-1.27L180.09-1.27Q181.21-3.13 181.21-5.76L181.21-5.76 181.21-9.11Q179.92-7.4 177.79-6.37L177.79-6.37Q175.23-5.15 172.62-5.15L172.62-5.15Q168.49-5.15 165.19-7.3L165.19-7.3Q159.92-10.69 159.92-17.04L159.92-17.04Q159.92-22.66 164.46-26.2L164.46-26.2Q168.05-28.96 172.69-28.96L172.69-28.96Q177.79-28.96 181.41-25.66L181.41-25.66 182.16-28.25ZM181.21-13.75L181.21-20.7Q178.5-25.15 173.01-25.15L173.01-25.15Q170.4-25.15 168.39-23.93L168.39-23.93Q164.68-21.68 164.68-17.07L164.68-17.07Q164.68-14.04 166.59-11.79L166.59-11.79Q168.95-8.96 172.93-8.96L172.93-8.96Q177.08-8.96 179.84-11.87L179.84-11.87Q180.6-12.65 181.21-13.75L181.21-13.75ZM207.21-29L207.21-29Q213.24-29 217.41-24.9L217.41-24.9Q221.83-20.58 221.83-13.53L221.83-13.53Q221.83-9.4 220.32-6.1L220.32-6.1Q218.37-1.88 214.39 0.29L214.39 0.29Q211.09 2.1 207.11 2.1L207.11 2.1Q199.93 2.1 195.73-3.2L195.73-3.2Q192.44-7.35 192.44-13.53L192.44-13.53Q192.44-21.58 198.05-25.95L198.05-25.95Q201.98-29 207.21-29ZM207.09-25.24L207.09-25.24Q202.62-25.24 199.71-21.53L199.71-21.53Q197.2-18.33 197.2-13.45L197.2-13.45Q197.2-9.99 198.49-7.32L198.49-7.32Q199.71-4.76 201.94-3.3L201.94-3.3Q204.28-1.76 207.16-1.76L207.16-1.76Q210.65-1.76 213.31-4.03L213.31-4.03Q217.07-7.28 217.07-13.48L217.07-13.48Q217.07-18.73 214.17-22.02L214.17-22.02Q211.31-25.24 207.09-25.24ZM241.22-29L241.22-29Q247.25-29 251.42-24.9L251.42-24.9Q255.84-20.58 255.84-13.53L255.84-13.53Q255.84-9.4 254.33-6.1L254.33-6.1Q252.37-1.88 248.39 0.29L248.39 0.29Q245.1 2.1 241.12 2.1L241.12 2.1Q233.94 2.1 229.74-3.2L229.74-3.2Q226.44-7.35 226.44-13.53L226.44-13.53Q226.44-21.58 232.06-25.95L232.06-25.95Q235.99-29 241.22-29ZM241.09-25.24L241.09-25.24Q236.63-25.24 233.72-21.53L233.72-21.53Q231.21-18.33 231.21-13.45L231.21-13.45Q231.21-9.99 232.5-7.32L232.5-7.32Q233.72-4.76 235.94-3.3L235.94-3.3Q238.29-1.76 241.17-1.76L241.17-1.76Q244.66-1.76 247.32-4.03L247.32-4.03Q251.08-7.28 251.08-13.48L251.08-13.48Q251.08-18.73 248.17-22.02L248.17-22.02Q245.32-25.24 241.09-25.24ZM284.3-23.61L284.3-41.5 288.84-41.5 288.84 1.39 284.5 1.39 284.5-2.91Q283.4-1.27 281.96-0.22L281.96-0.22Q278.76 2.05 274.49 2.05L274.49 2.05Q270 2.05 266.55-0.46L266.55-0.46Q260.74-4.69 260.74-13.48L260.74-13.48Q260.74-18.55 262.92-22.31L262.92-22.31Q265.31-26.42 269.61-28.08L269.61-28.08Q271.93-28.96 274.37-28.96L274.37-28.96Q278.52-28.96 281.74-26.46L281.74-26.46Q283.25-25.29 284.3-23.61L284.3-23.61ZM284.3-7.91L284.3-18.6Q280.59-25.15 275.22-25.15L275.22-25.15Q271.9-25.15 269.34-22.92L269.34-22.92Q265.55-19.68 265.55-13.38L265.55-13.38Q265.55-9.08 267.36-6.15L267.36-6.15Q270.05-1.76 275.25-1.76L275.25-1.76Q278.57-1.76 281.33-4.05L281.33-4.05Q283.03-5.49 284.3-7.91L284.3-7.91ZM297.17-1.05L297.17-7.96 304.15-7.96 304.15-4.05Q304.15 2.05 299.9 5.93L299.9 5.93 296.56 5.93Q299.78 2.76 300.37-1.05L300.37-1.05 297.17-1.05ZM326.53-28.25L334.08-28.25 334.08-30.54Q334.08-35.13 335.93-37.77L335.93-37.77Q338.59-41.5 343.67-41.5L343.67-41.5Q347.28-41.5 350.51-39.55L350.51-39.55 348.72-36.35Q346.45-37.74 344.04-37.74L344.04-37.74Q340.55-37.74 339.18-34.55L339.18-34.55Q338.57-33.08 338.57-30.59L338.57-30.59 338.57-28.25 348.26-28.25 348.26-24.76 338.57-24.76 338.57 1.25 334.08 1.25 334.08-24.76 326.53-24.76 326.53-28.25ZM381.51-14.31L381.51-13.01 358.78-13.01Q358.88-8.37 360.95-5.62L360.95-5.62Q363.76-1.88 369.11-1.88L369.11-1.88Q374.75-1.88 378.58-6.76L378.58-6.76 381.41-3.76Q376.55 2.08 368.89 2.08L368.89 2.08Q361.25 2.08 357.15-3.13L357.15-3.13Q353.97-7.15 353.97-13.23L353.97-13.23Q353.97-18.46 356.27-22.34L356.27-22.34Q358.51-26.1 362.37-27.83L362.37-27.83Q365.06-29.05 368.08-29.05L368.08-29.05Q375.11-29.05 378.9-23.44L378.9-23.44Q381.51-19.56 381.51-14.31L381.51-14.31ZM358.98-16.5L376.73-16.5Q376.43-20.12 374.43-22.41L374.43-22.41Q371.94-25.29 367.99-25.29L367.99-25.29Q365.1-25.29 362.74-23.46L362.74-23.46Q359.61-21.07 358.98-16.5L358.98-16.5ZM416.01-14.31L416.01-13.01 393.28-13.01Q393.37-8.37 395.45-5.62L395.45-5.62Q398.26-1.88 403.6-1.88L403.6-1.88Q409.24-1.88 413.08-6.76L413.08-6.76 415.91-3.76Q411.05 2.08 403.38 2.08L403.38 2.08Q395.74 2.08 391.64-3.13L391.64-3.13Q388.47-7.15 388.47-13.23L388.47-13.23Q388.47-18.46 390.76-22.34L390.76-22.34Q393.01-26.1 396.86-27.83L396.86-27.83Q399.55-29.05 402.58-29.05L402.58-29.05Q409.61-29.05 413.39-23.44L413.39-23.44Q416.01-19.56 416.01-14.31L416.01-14.31ZM393.47-16.5L411.22-16.5Q410.93-20.12 408.92-22.41L408.92-22.41Q406.43-25.29 402.48-25.29L402.48-25.29Q399.6-25.29 397.23-23.46L397.23-23.46Q394.11-21.07 393.47-16.5L393.47-16.5ZM425.3-2.91L425.3-41.5 429.89-41.5 429.89-3.44Q429.89-2.49 430.8-2.49L430.8-2.49 434.7-2.49 434.19 1.25 429.55 1.25Q425.3 1.25 425.3-2.91L425.3-2.91ZM438.8-2.29L441.24-5.76Q445.79-2 451.47-2L451.47-2Q458.04-2 458.04-6.35L458.04-6.35Q458.04-8.35 455.79-9.77L455.79-9.77Q454.35-10.67 451.3-11.74L451.3-11.74 448.76-12.65Q444.54-14.14 442.64-15.7L442.64-15.7Q440.29-17.63 440.29-20.9L440.29-20.9Q440.29-24.8 443.64-27.1L443.64-27.1Q446.4-29 450.55-29L450.55-29Q456.6-29 461.7-25.49L461.7-25.49 459.36-22Q455.28-25.1 450.79-25.1L450.79-25.1Q448.79-25.1 447.4-24.37L447.4-24.37Q445.17-23.24 445.17-21.02L445.17-21.02Q445.17-19.26 446.74-18.26L446.74-18.26Q447.71-17.63 451.16-16.36L451.16-16.36 454.26-15.21Q458.48-13.62 460.53-11.84L460.53-11.84Q463.05-9.67 463.05-6.45L463.05-6.45Q463.05-2.25 459.38 0.2L459.38 0.2Q456.58 2.05 451.13 2.05L451.13 2.05Q444.17 2.05 438.8-2.29L438.8-2.29ZM487.97-2.91L487.97-41.5 492.56-41.5 492.56-3.44Q492.56-2.49 493.46-2.49L493.46-2.49 497.37-2.49 496.85 1.25 492.22 1.25Q487.97 1.25 487.97-2.91L487.97-2.91ZM504.22-34.55L504.22-39.99 509.72-39.99 509.72-34.55 504.22-34.55ZM504.66 1.25L504.66-28.25 509.25-28.25 509.25 1.25 504.66 1.25ZM519.87 1.25L519.87-41.5 524.41-41.5 524.41-15.36 538.06-28.25 544.02-28.25 532.25-17.04 545.16 1.25 539.31 1.25 529.17-14.36 524.41-10.01 524.41 1.25 519.87 1.25ZM577.14-14.31L577.14-13.01 554.42-13.01Q554.51-8.37 556.59-5.62L556.59-5.62Q559.4-1.88 564.74-1.88L564.74-1.88Q570.38-1.88 574.22-6.76L574.22-6.76 577.05-3.76Q572.19 2.08 564.52 2.08L564.52 2.08Q556.88 2.08 552.78-3.13L552.78-3.13Q549.61-7.15 549.61-13.23L549.61-13.23Q549.61-18.46 551.9-22.34L551.9-22.34Q554.15-26.1 558-27.83L558-27.83Q560.69-29.05 563.72-29.05L563.72-29.05Q570.75-29.05 574.53-23.44L574.53-23.44Q577.14-19.56 577.14-14.31L577.14-14.31ZM554.61-16.5L572.36-16.5Q572.07-20.12 570.06-22.41L570.06-22.41Q567.57-25.29 563.62-25.29L563.62-25.29Q560.74-25.29 558.37-23.46L558.37-23.46Q555.25-21.07 554.61-16.5L554.61-16.5ZM602.43 1.25L602.43-41.5 606.97-41.5 606.97-23Q609-25.73 611.71-27.25L611.71-27.25Q614.57-28.81 617.5-28.81L617.5-28.81Q623.14-28.81 625.77-25.02L625.77-25.02Q627.73-22.24 627.73-17.41L627.73-17.41 627.73 1.25 623.14 1.25 623.14-16.85Q623.14-20.61 621.92-22.46L621.92-22.46Q620.35-24.85 616.84-24.85L616.84-24.85Q614.44-24.85 612.13-23.46L612.13-23.46Q608.78-21.44 606.97-17.5L606.97-17.5 606.97 1.25 602.43 1.25ZM649.7-29L649.7-29Q655.73-29 659.9-24.9L659.9-24.9Q664.32-20.58 664.32-13.53L664.32-13.53Q664.32-9.4 662.81-6.1L662.81-6.1Q660.85-1.88 656.87 0.29L656.87 0.29Q653.58 2.1 649.6 2.1L649.6 2.1Q642.42 2.1 638.22-3.2L638.22-3.2Q634.93-7.35 634.93-13.53L634.93-13.53Q634.93-21.58 640.54-25.95L640.54-25.95Q644.47-29 649.7-29ZM649.57-25.24L649.57-25.24Q645.11-25.24 642.2-21.53L642.2-21.53Q639.69-18.33 639.69-13.45L639.69-13.45Q639.69-9.99 640.98-7.32L640.98-7.32Q642.2-4.76 644.42-3.3L644.42-3.3Q646.77-1.76 649.65-1.76L649.65-1.76Q653.14-1.76 655.8-4.03L655.8-4.03Q659.56-7.28 659.56-13.48L659.56-13.48Q659.56-18.73 656.65-22.02L656.65-22.02Q653.8-25.24 649.57-25.24ZM670.64-28.25L674.94-28.25 674.94-23.14Q676.23-26.05 679.01-27.64L679.01-27.64Q681.07-28.81 683.17-28.81L683.17-28.81Q689.39-28.81 691.32-22.66L691.32-22.66Q692.42-25.07 694.1-26.54L694.1-26.54Q696.74-28.81 700.08-28.81L700.08-28.81Q704.82-28.81 707.48-25L707.48-25Q709.24-22.46 709.24-17.41L709.24-17.41 709.24 1.25 704.8 1.25 704.8-17.31Q704.8-21 703.36-22.92L703.36-22.92Q701.84-24.95 699.23-24.95L699.23-24.95Q696.81-24.95 694.71-22.73L694.71-22.73Q692.83-20.78 692.17-17.94L692.17-17.94 692.17 1.25 687.78 1.25 687.78-17.55Q687.78-20.83 686.46-22.71L686.46-22.71Q684.87-24.95 682.26-24.95L682.26-24.95Q679.65-24.95 677.5-22.31L677.5-22.31Q675.87-20.34 675.13-17.36L675.13-17.36 675.13 1.25 670.64 1.25 670.64-28.25ZM744.32-14.31L744.32-13.01 721.59-13.01Q721.69-8.37 723.76-5.62L723.76-5.62Q726.57-1.88 731.92-1.88L731.92-1.88Q737.56-1.88 741.39-6.76L741.39-6.76 744.22-3.76Q739.36 2.08 731.7 2.08L731.7 2.08Q724.06 2.08 719.95-3.13L719.95-3.13Q716.78-7.15 716.78-13.23L716.78-13.23Q716.78-18.46 719.08-22.34L719.08-22.34Q721.32-26.1 725.18-27.83L725.18-27.83Q727.86-29.05 730.89-29.05L730.89-29.05Q737.92-29.05 741.71-23.44L741.71-23.44Q744.32-19.56 744.32-14.31L744.32-14.31ZM721.79-16.5L739.53-16.5Q739.24-20.12 737.24-22.41L737.24-22.41Q734.75-25.29 730.79-25.29L730.79-25.29Q727.91-25.29 725.55-23.46L725.55-23.46Q722.42-21.07 721.79-16.5L721.79-16.5Z" opacity="1" transform="matrix(1,0,0,1,0,0)" fill="#d97474" class="slogan-text-1" data-fill-palette-color="secondary" id="text-1"></path></svg></g></svg></g></svg></g></svg></g><g transform="matrix(1,0,0,1,0,0.2847807315988504)"><svg viewBox="0 0 78.45732462742801 113.91229263954313" height="113.91229263954313" width="78.45732462742801"><g><svg xmlns="http://www.w3.org/2000/svg" xmlns:xlink="http://www.w3.org/1999/xlink" version="1.0" x="0" y="0" viewBox="17.106 5.1766152 61.844 89.7913848" enable-background="new 0 0 100 100" xml:space="preserve" height="113.91229263954313" width="78.45732462742801" class="icon-icon-0" data-fill-palette-color="accent" id="icon-0"><circle cx="47.5848846" cy="58.8970032" r="3.5" fill="#d97474" data-fill-palette-color="accent"></circle><circle cx="47.5848846" cy="80.8466187" r="3.5" fill="#d97474" data-fill-palette-color="accent"></circle><path d="M65.696 33.726H58.05V45.39H17.106V94.968H78.95V45.39H65.696zM72.143 88.52H23.026V73.172H72.143zM72.143 51.223V66.572H23.026V51.222z" fill="#d97474" data-fill-palette-color="accent"></path><polygon points="67.9260941,5.1766152 55.8206635,5.1766152 45.2937164,28.5065022 77.5431213,28.5065022 " fill="#d97474" data-fill-palette-color="accent"></polygon></svg></g></svg></g></svg></g><defs></defs></svg><rect width="395.52" height="87.23468477796898" fill="none" stroke="none" visibility="hidden"></rect></g></svg></g></svg>